<svg width="40" height="40" viewBox="0 0 40 40" fill="none" xmlns="http://www.w3.org/2000/svg">
<style>
:root { color: #2B3D7A; }
@media (prefers-color-scheme: dark) {
  :root { color: #FFFFFF; }
}
</style>
<path d="M19.9733 0C8.94282 0 0 8.95476 0 20C0 31.0452 8.94282 40 19.9733 40C31.0039 40 39.9467 31.0452 39.9467 20C39.9467 8.95476 31.005 0 19.9733 0ZM11.4067 23.7418C12.5562 23.7418 13.5845 23.2218 14.27 22.4036V22.406C14.9866 21.5 16.0507 21.0135 17.1228 20.9938H18.9832V27.3774H15.1436V26.5996C14.0403 27.2271 12.7662 27.5877 11.4067 27.5877C7.22211 27.5877 3.83033 24.1914 3.83033 20.0012C3.83033 15.8109 7.22211 12.4146 11.4067 12.4146C12.7662 12.4146 14.0403 12.7752 15.1436 13.4027V12.6249H18.9832V19.0096H17.1228C16.0507 18.99 14.9855 18.5012 14.27 17.5975C13.5845 16.7793 12.5562 16.2593 11.4056 16.2593C9.34212 16.2593 7.66873 17.9349 7.66873 20.0012C7.66873 22.0674 9.34212 23.743 11.4056 23.743L11.4067 23.7418ZM28.5296 27.5865C27.1701 27.5865 25.8948 27.226 24.7927 26.5985V27.3762H20.9531V20.9915H22.8135C23.8856 21.0112 24.9508 21.5 25.6663 22.4036C26.3518 23.2218 27.3801 23.7418 28.5307 23.7418C30.5942 23.7418 32.2676 22.0662 32.2676 20C32.2676 17.9338 30.5942 16.2582 28.5307 16.2582C27.3813 16.2582 26.353 16.7782 25.6675 17.5963V17.594C24.9508 18.5 23.8868 18.9865 22.8146 19.0062H20.9543V7.81187H24.7939V13.3992C25.8971 12.7717 27.1712 12.4112 28.5307 12.4112C32.7153 12.4112 36.1071 15.8075 36.1071 19.9977C36.1071 24.1879 32.7153 27.5842 28.5307 27.5842L28.5296 27.5865Z" fill="currentColor"/>
</svg>
