<svg width="180" height="180" viewBox="0 0 180 180" fill="none" xmlns="http://www.w3.org/2000/svg">
<path fill-rule="evenodd" clip-rule="evenodd" d="M52.9742 110.883C47.5959 116.291 40.3006 119.33 32.6916 119.333C27.0168 119.333 21.4694 121.024 16.7496 124.194C12.0332 127.361 8.35451 131.865 6.18251 137.131C4.0105 142.401 3.44508 148.198 4.55174 153.793C5.65848 159.385 8.38903 164.523 12.4021 168.556C16.4151 172.589 21.528 175.333 27.0926 176.445C32.6606 177.558 38.4285 176.989 43.6724 174.807C48.9128 172.624 53.3948 168.927 56.546 164.187C59.7006 159.444 61.3831 153.869 61.3831 148.167C61.3796 144.38 62.1209 140.631 63.5619 137.131C65.0031 133.632 67.1166 130.451 69.7816 127.773C72.4466 125.095 75.6116 122.971 79.0938 121.523C82.5759 120.075 86.3063 119.333 90.0745 119.333L61.3831 90.5C61.3796 98.1466 58.356 105.478 52.9742 110.883Z" fill="#FF9432"/>
<path fill-rule="evenodd" clip-rule="evenodd" d="M120.962 79.4649C122.403 75.9655 124.517 72.7849 127.182 70.1067C129.847 67.4285 133.012 65.3046 136.494 63.8563C139.976 62.4081 143.706 61.6632 147.475 61.6667C153.15 61.6667 158.697 59.9759 163.417 56.8057C168.133 53.6389 171.812 49.1348 173.984 43.8685C176.156 38.5987 176.721 32.8022 175.615 27.2067C174.508 21.6147 171.777 16.4765 167.764 12.4436C163.751 8.41072 158.638 5.66668 153.074 4.55446C147.506 3.44233 141.738 4.01055 136.494 6.19329C131.254 8.37603 126.772 12.0729 123.62 16.8126C120.466 21.5558 118.783 27.1305 118.783 32.8334C118.78 40.48 115.756 47.8114 110.374 53.2162C104.996 58.6246 97.7008 61.6632 90.0918 61.6667L118.783 90.4999C118.78 86.7131 119.521 82.9642 120.962 79.4649Z" fill="#CDD8E3"/>
<path fill-rule="evenodd" clip-rule="evenodd" d="M59.2042 79.4649C57.763 75.9655 55.6496 72.7849 52.9846 70.1067C50.3195 67.4285 47.1546 65.3046 43.6724 63.8563C40.1903 62.4081 36.4599 61.6632 32.6916 61.6667C27.0168 61.6667 21.4694 59.9759 16.7496 56.8057C12.0332 53.6389 8.35451 49.1348 6.18251 43.8685C4.0105 38.5987 3.44508 32.8022 4.55174 27.2067C5.65848 21.6147 8.38903 16.4765 12.4021 12.4436C16.4151 8.41072 21.528 5.66668 27.0926 4.55446C32.6606 3.44233 38.4285 4.01055 43.6724 6.19329C48.9128 8.37603 53.3948 12.0729 56.546 16.8126C59.7006 21.5558 61.3831 27.1305 61.3831 32.8334C61.3865 40.48 64.4101 47.8114 69.7919 53.2162C75.1703 58.6246 82.4655 61.6632 90.0745 61.6667L61.3831 90.4999C61.3865 86.7131 60.6453 82.9642 59.2042 79.4649Z" fill="#26249B"/>
<path fill-rule="evenodd" clip-rule="evenodd" d="M176.141 148.166C176.141 132.242 163.295 119.333 147.453 119.333C131.604 119.333 118.758 132.242 118.758 148.166C118.758 164.09 131.604 176.999 147.453 176.999C163.295 176.999 176.141 164.09 176.141 148.166Z" fill="#1768E1"/>
<path fill-rule="evenodd" clip-rule="evenodd" d="M118.725 90.4395C118.725 74.5157 105.879 61.6062 90.0333 61.6062C74.1878 61.6062 61.3418 74.5157 61.3418 90.4395C61.3418 106.363 74.1878 119.273 90.0333 119.273C105.879 119.273 118.725 106.363 118.725 90.4395Z" fill="#26249B"/>
</svg>
