<svg id="Layer_1" data-name="Layer 1" xmlns="http://www.w3.org/2000/svg" viewBox="0 0 240.4043 75.8542">
  <g>
    <path id="fullLogo" d="M112.5709,10.3311a.4382.4382,0,0,1-.3223.1327H99.3493a.1676.1676,0,0,0-.19.19v7.095a.1673.1673,0,0,0,.19.19h8.6878a.4529.4529,0,0,1,.4553.455v2.8832a.4539.4539,0,0,1-.4553.4557H99.3493a.1673.1673,0,0,0-.19.19V32.7723a.4538.4538,0,0,1-.4554.455h-3.49a.4536.4536,0,0,1-.4553-.455V7.1256a.4534.4534,0,0,1,.4553-.4557h17.0349a.4527.4527,0,0,1,.4549.4557v2.8832A.4387.4387,0,0,1,112.5709,10.3311Z" style="fill: #1b574e"/>
    <path id="fullLogo-2" data-name="fullLogo" d="M116.27,10.426a2.6174,2.6174,0,0,1-.7588-1.9348,2.6944,2.6944,0,1,1,5.3874,0A2.737,2.737,0,0,1,116.27,10.426Zm-.2086,22.6686a.4365.4365,0,0,1-.133-.3223V14.2577a.4536.4536,0,0,1,.4553-.455h3.49a.4536.4536,0,0,1,.4553.455V32.7723a.4536.4536,0,0,1-.4553.455h-3.49A.4362.4362,0,0,1,116.061,33.0946Z" style="fill: #1b574e"/>
    <path id="fullLogo-3" data-name="fullLogo" d="M126.266,33.0946a.4361.4361,0,0,1-.1326-.3223V7.1256a.4528.4528,0,0,1,.4553-.4557h3.49a.4529.4529,0,0,1,.4554.4557V32.7723a.4531.4531,0,0,1-.4554.455h-3.49A.4371.4371,0,0,1,126.266,33.0946Z" style="fill: #1b574e"/>
    <path id="fullLogo-4" data-name="fullLogo" d="M147.5686,14.3718a6.6183,6.6183,0,0,1,2.8077,2.2949,5.7988,5.7988,0,0,1,.9862,3.32V32.7723a.4529.4529,0,0,1-.4553.455h-3.49a.4531.4531,0,0,1-.4554-.455V31.5578c0-.0756-.0255-.1193-.0759-.1327a.1583.1583,0,0,0-.1519.0571,6.9045,6.9045,0,0,1-5.3871,2.0489,7.3656,7.3656,0,0,1-4.6857-1.442,5.1111,5.1111,0,0,1-1.84-4.2867,5.564,5.564,0,0,1,2.0678-4.61,9.1193,9.1193,0,0,1,5.8235-1.65h4.0595a.1675.1675,0,0,0,.19-.19v-.9107a2.9916,2.9916,0,0,0-.8725-2.2956,3.716,3.716,0,0,0-2.6179-.8159,4.6541,4.6541,0,0,0-2.3334.5128,2.2235,2.2235,0,0,0-1.1189,1.4227q-.114.4546-.5313.3794l-3.68-.4557a.8015.8015,0,0,1-.3223-.1327.2154.2154,0,0,1-.0949-.2467,5.3171,5.3171,0,0,1,2.4849-3.7939,9.5553,9.5553,0,0,1,5.4823-1.48A10.01,10.01,0,0,1,147.5686,14.3718ZM145.6339,29.054a3,3,0,0,0,1.3278-2.5039V24.7673a.1676.1676,0,0,0-.19-.19h-3.187a5.7225,5.7225,0,0,0-3.1678.7588,2.4362,2.4362,0,0,0-1.157,2.1622,2.2,2.2,0,0,0,.8914,1.8777,3.7381,3.7381,0,0,0,2.2952.6639A5.1942,5.1942,0,0,0,145.6339,29.054Z" style="fill: #1b574e"/>
    <path id="fullLogo-5" data-name="fullLogo" d="M181.8465,15.301a6.9144,6.9144,0,0,1,1.65,4.9136V32.7723a.4531.4531,0,0,1-.4554.455H179.589a.4536.4536,0,0,1-.4553-.455V21.1245a3.9659,3.9659,0,0,0-.93-2.7691,3.191,3.191,0,0,0-2.4849-1.0248,3.3716,3.3716,0,0,0-2.542,1.0248,3.7691,3.7691,0,0,0-.9863,2.7313V32.7723a.4529.4529,0,0,1-.4554.455h-3.4523a.4529.4529,0,0,1-.4553-.455V21.1245a3.9167,3.9167,0,0,0-.9485-2.7691,3.2508,3.2508,0,0,0-2.5038-1.0248,3.2759,3.2759,0,0,0-3.4527,3.1115v12.33a.4529.4529,0,0,1-.4553.455h-3.49a.4529.4529,0,0,1-.4553-.455V14.2955a.4527.4527,0,0,1,.4553-.455h3.49a.4527.4527,0,0,1,.4553.455v1.2523a.1525.1525,0,0,0,.0759.1519c.05.0252.1008,0,.152-.0763a5.0492,5.0492,0,0,1,2.0673-1.5739,7.1027,7.1027,0,0,1,2.7506-.5128,6.7648,6.7648,0,0,1,3.263.7588,5.2,5.2,0,0,1,2.1626,2.2007q.1134.1524.2653,0a5.2044,5.2044,0,0,1,2.3145-2.2385,7.4412,7.4412,0,0,1,3.3008-.721A5.9557,5.9557,0,0,1,181.8465,15.301Z" style="fill: #1b574e"/>
    <path id="fullLogo-6" data-name="fullLogo" d="M204.4769,23.4772l-.0381,1.176a.4019.4019,0,0,1-.455.4549H192.1086a.1678.1678,0,0,0-.19.19,5.4163,5.4163,0,0,0,.3416,1.7073q.91,2.7321,4.4389,2.77a4.781,4.781,0,0,0,4.0974-2.1244.4447.4447,0,0,1,.3794-.2275.3655.3655,0,0,1,.2656.1134l2.3523,1.9347a.4052.4052,0,0,1,.1138.6077,7.7508,7.7508,0,0,1-3.13,2.5794,10.1645,10.1645,0,0,1-4.3441.9107,9.1072,9.1072,0,0,1-5.027-1.3279,7.6337,7.6337,0,0,1-3.0162-3.7183,14.9113,14.9113,0,0,1-.8725-5.6909,11.5339,11.5339,0,0,1,.4553-3.5657,7.6092,7.6092,0,0,1,2.8643-4.1926,8.3606,8.3606,0,0,1,5.0648-1.5368q7.4736,0,8.4225,7.8161A13.561,13.561,0,0,1,204.4769,23.4772Zm-10.9075-5.4441a3.7113,3.7113,0,0,0-1.3089,1.9533,6.5815,6.5815,0,0,0-.3035,1.6694c-.0511.1267,0,.19.1516.19h7.7019a.1678.1678,0,0,0,.19-.19,7.2141,7.2141,0,0,0-.2279-1.4412,3.6844,3.6844,0,0,0-1.3467-2.1252,4.0741,4.0741,0,0,0-2.5231-.7588A3.7591,3.7591,0,0,0,193.5694,18.0331Z" style="fill: #1b574e"/>
    <path id="fullLogo-7" data-name="fullLogo" d="M223.465,15.3581a6.6767,6.6767,0,0,1,1.84,4.97V32.7723a.4529.4529,0,0,1-.4553.455h-3.49a.4531.4531,0,0,1-.455-.455V21.2386a4.0291,4.0291,0,0,0-.9866-2.8261A3.3736,3.3736,0,0,0,217.3,17.3306a3.4646,3.4646,0,0,0-2.6368,1.0626,3.9161,3.9161,0,0,0-1.0056,2.8076V32.7723a.4529.4529,0,0,1-.4553.455h-3.49a.4531.4531,0,0,1-.4554-.455V14.2955a.4529.4529,0,0,1,.4554-.455h3.49a.4527.4527,0,0,1,.4553.455V15.51a.1526.1526,0,0,0,.076.1519c.05.0252.0882,0,.1137-.0763a5.5319,5.5319,0,0,1,4.7046-2.0489A6.6811,6.6811,0,0,1,223.465,15.3581Z" style="fill: #1b574e"/>
    <path id="fullLogo-8" data-name="fullLogo" d="M240.2716,17.2743a.4388.4388,0,0,1-.3227.1326h-3.87a.1673.1673,0,0,0-.19.19V26.74a2.9193,2.9193,0,0,0,.6258,2.0867,2.6731,2.6731,0,0,0,1.9918.6446h1.1382a.4541.4541,0,0,1,.4553.4557v2.8455a.4674.4674,0,0,1-.4553.4927l-1.9729.0386a7.9122,7.9122,0,0,1-4.4768-1.0248q-1.4795-1.0237-1.5175-3.8695V17.5966a.1676.1676,0,0,0-.19-.19H229.326a.4528.4528,0,0,1-.455-.4557V14.2955a.4527.4527,0,0,1,.455-.455h2.1626a.1676.1676,0,0,0,.19-.19V9.2122a.4536.4536,0,0,1,.4553-.4557h3.3008a.4536.4536,0,0,1,.4553.4557v4.4386a.1673.1673,0,0,0,.19.19h3.87a.4529.4529,0,0,1,.4554.455v2.6557A.4406.4406,0,0,1,240.2716,17.2743Z" style="fill: #1b574e"/>
    <path id="fullLogo-9" data-name="fullLogo" d="M111.0344,42.8017h1.9348a.3355.3355,0,0,1,.3794.3794V68.98a.3353.3353,0,0,1-.3794.3794h-1.9348a.3351.3351,0,0,1-.3794-.3794V57.3327a.1346.1346,0,0,0-.1519-.1519H98.4008a.1344.1344,0,0,0-.1519.1519V68.98a.3353.3353,0,0,1-.3794.3794H95.9347a.335.335,0,0,1-.3794-.3794V43.1811a.3353.3353,0,0,1,.3794-.3794H97.87a.3355.3355,0,0,1,.3794.3794V54.6769a.134.134,0,0,0,.1519.1519h12.1023a.1343.1343,0,0,0,.1519-.1519V43.1811A.3354.3354,0,0,1,111.0344,42.8017Z" style="fill: #1b574e"/>
    <path id="fullLogo-10" data-name="fullLogo" d="M133.1907,59.1918v1.2138a.3354.3354,0,0,1-.3794.3794H120.557a.1344.1344,0,0,0-.1519.1519,16.9118,16.9118,0,0,0,.2275,2.6935,4.537,4.537,0,0,0,1.7832,2.6936,5.8119,5.8119,0,0,0,3.49.9862,5.4,5.4,0,0,0,2.8076-.72,4.9572,4.9572,0,0,0,1.897-2.0489q.2273-.3413.5309-.1519l1.48.8729a.3781.3781,0,0,1,.1515.5306,6.8233,6.8233,0,0,1-2.8454,2.8647,8.9036,8.9036,0,0,1-4.363,1.0433,7.9833,7.9833,0,0,1-4.5146-1.29,6.9161,6.9161,0,0,1-2.6179-3.49,15.5817,15.5817,0,0,1-.6828-5.2359q0-1.5927.057-2.5987a8.2665,8.2665,0,0,1,.2846-1.8021A7.025,7.025,0,0,1,120.69,51.338a7.5974,7.5974,0,0,1,4.7235-1.48,7.4722,7.4722,0,0,1,5.3115,1.7458,8.0838,8.0838,0,0,1,2.3141,4.9321A19.3493,19.3493,0,0,1,133.1907,59.1918Zm-10.87-6.0139a4.4826,4.4826,0,0,0-1.6124,2.5994,12.2845,12.2845,0,0,0-.3034,2.5794.134.134,0,0,0,.1519.1519h9.826a.1343.1343,0,0,0,.1519-.1519,17.2073,17.2073,0,0,0-.2278-2.4282,4.7952,4.7952,0,0,0-1.688-2.7121,5.0119,5.0119,0,0,0-3.206-1.0055A4.8566,4.8566,0,0,0,122.3209,53.1779Z" style="fill: #1b574e"/>
    <path id="fullLogo-11" data-name="fullLogo" d="M150.4526,51.604a6.05,6.05,0,0,1,1.8588,4.6283V68.98a.3353.3353,0,0,1-.3794.3794h-1.9348a.3351.3351,0,0,1-.3793-.3794V67.4243a.1289.1289,0,0,0-.0571-.1141c-.0378-.0244-.0823-.0118-.1326.0386a5.9281,5.9281,0,0,1-2.4661,1.7257,9.28,9.28,0,0,1-3.3767.5884,7.3129,7.3129,0,0,1-4.5146-1.3657,4.88,4.88,0,0,1-1.8213-4.1733,5.4447,5.4447,0,0,1,2.0677-4.4963,8.99,8.99,0,0,1,5.748-1.65h4.4007a.1344.1344,0,0,0,.152-.1519V56.3842a4.21,4.21,0,0,0-1.0815-3.0544,4.484,4.484,0,0,0-3.3575-1.1189,5.5749,5.5749,0,0,0-2.9592.7017,2.938,2.938,0,0,0-1.4038,1.954.4025.4025,0,0,1-.4553.3416l-2.0485-.266c-.2786-.05-.3928-.1519-.3416-.3031a4.8937,4.8937,0,0,1,2.2763-3.453,8.6441,8.6441,0,0,1,4.9321-1.3279A7.4144,7.4144,0,0,1,150.4526,51.604Zm-2.4661,14.6251a3.4819,3.4819,0,0,0,1.6314-3.0159V60.2537a.1347.1347,0,0,0-.152-.1519h-3.9836a7.0691,7.0691,0,0,0-4.0214,1.0248,3.2467,3.2467,0,0,0-1.5175,2.8454,2.9357,2.9357,0,0,0,1.157,2.5231,4.9554,4.9554,0,0,0,3.0163.8537A6.6726,6.6726,0,0,0,147.9865,66.2291Z" style="fill: #1b574e"/>
    <path id="fullLogo-12" data-name="fullLogo" d="M157.9259,68.98V43.1811a.3354.3354,0,0,1,.3794-.3794H160.24a.3356.3356,0,0,1,.3794.3794V68.98a.3353.3353,0,0,1-.3794.3794h-1.9348A.3351.3351,0,0,1,157.9259,68.98Z" style="fill: #1b574e"/>
    <path id="fullLogo-13" data-name="fullLogo" d="M174.126,52.4006h-4.287a.1343.1343,0,0,0-.1519.1519v11.192a3.3409,3.3409,0,0,0,.8158,2.5609,3.7325,3.7325,0,0,0,2.5609.7395h.9485a.3357.3357,0,0,1,.3794.3794V68.98a.3354.3354,0,0,1-.3794.3794q-.4557.0378-1.4039.0378a6.9723,6.9723,0,0,1-4.1355-1.0241q-1.4039-1.0248-1.4038-3.7939V52.5525a.1344.1344,0,0,0-.1515-.1519h-2.3145a.3354.3354,0,0,1-.3794-.3794v-1.48a.3354.3354,0,0,1,.3794-.3794h2.3145a.1341.1341,0,0,0,.1515-.1519V45.6093a.3353.3353,0,0,1,.3794-.3793h1.8592a.3355.3355,0,0,1,.3794.3793V50.01a.134.134,0,0,0,.1519.1519h4.287a.3357.3357,0,0,1,.3794.3794v1.48A.3357.3357,0,0,1,174.126,52.4006Z" style="fill: #1b574e"/>
    <path id="fullLogo-14" data-name="fullLogo" d="M192.5072,51.68a6.4241,6.4241,0,0,1,1.8021,4.78V68.98a.3353.3353,0,0,1-.3794.3794h-1.9347a.335.335,0,0,1-.3794-.3794V56.9911a4.7362,4.7362,0,0,0-1.2712-3.4145,4.3426,4.3426,0,0,0-3.2815-1.3279,4.428,4.428,0,0,0-4.6668,4.6668V68.98a.3353.3353,0,0,1-.3794.3794h-1.9347a.3351.3351,0,0,1-.3794-.3794V43.1811a.3354.3354,0,0,1,.3794-.3794h1.9347a.3355.3355,0,0,1,.3794.3794v8.992a.1268.1268,0,0,0,.057.1134c.0378.0259.0693.0133.0949-.0378a5.8557,5.8557,0,0,1,5.1218-2.3519A6.5767,6.5767,0,0,1,192.5072,51.68Z" style="fill: #1b574e"/>
    <path id="logoMark" d="M71.3374,32.0469v0L51.0687,4.0931A10.614,10.614,0,0,0,42.66,0,9.1326,9.1326,0,0,0,39.833.4314L6.9872,11.0716A10.5691,10.5691,0,0,0,.032,20.6242L0,55.1549a10.5684,10.5684,0,0,0,6.9349,9.5638l32.8283,10.699a9.16,9.16,0,0,0,2.844.4365,10.6155,10.6155,0,0,0,8.3968-4.0764L71.3286,43.8636A10.5722,10.5722,0,0,0,71.3374,32.0469ZM33.7086,28.4876a2.5673,2.5673,0,0,0-3.2151-1.6617L5.1353,34.9054l.0116-14.2783a5.4953,5.4953,0,0,1,3.4148-4.6879L41.4082,5.2983A4.0809,4.0809,0,0,1,42.66,5.1157a5.5947,5.5947,0,0,1,4.2681,1.98L67.1963,35.05a5.4958,5.4958,0,0,1-.0036,5.799L46.8681,68.7675a5.59,5.59,0,0,1-4.2616,1.9711,4.093,4.093,0,0,1-1.2572-.1852L8.52,59.8544a5.5035,5.5035,0,0,1-3.4054-4.6966L5.13,40.2763l26.9174-8.5754A2.5652,2.5652,0,0,0,33.7086,28.4876Z" style="fill: #1b574e"/>
  </g>
</svg>
