<svg width="282" height="38" viewBox="0 0 282 38" fill="none" xmlns="http://www.w3.org/2000/svg">
<g clip-path="url(#clip0_2981_246)">
<path fill-rule="evenodd" clip-rule="evenodd" d="M113.155 4.77033V1.18115H116.609V18.351H112.715L108.985 11.5024C107.846 9.36835 107.056 7.81628 106.596 6.82683C106.652 9.0191 106.688 11.6771 106.688 14.7618V18.351H103.234V1.18115H107.129L110.859 8.0297C111.925 10.028 112.733 11.5995 113.247 12.7635C113.192 10.5324 113.155 7.87449 113.155 4.78974V4.77033Z" fill="#1D1D31"/>
<path fill-rule="evenodd" clip-rule="evenodd" d="M130.941 1.18115V4.80914H123.022V7.93269H130.224V11.3473H123.022V14.7036H130.904V18.3316H119.477V1.18115H130.923H130.941Z" fill="#1D1D31"/>
<path fill-rule="evenodd" clip-rule="evenodd" d="M140.627 11.483V8.26246H148.124V17.9629H145.423L144.964 15.6736C143.861 17.4585 142.098 18.3703 139.672 18.3703C137.247 18.3703 135.41 17.5361 133.995 15.8871C132.58 14.2574 131.863 12.0651 131.863 9.2907C131.863 6.51637 132.599 4.28526 134.087 2.65558C135.556 1.0259 137.559 0.21106 140.131 0.21106C142.244 0.21106 144.008 0.773687 145.423 1.89894C146.837 3.0436 147.664 4.55687 147.921 6.45816H143.971C143.751 5.60453 143.292 4.94489 142.648 4.47927C141.987 4.01365 141.16 3.76144 140.186 3.76144C138.863 3.76144 137.816 4.24646 137.063 5.23591C136.31 6.20595 135.924 7.56403 135.924 9.2907C135.924 11.0174 136.31 12.3754 137.1 13.3455C137.89 14.3155 138.974 14.82 140.351 14.82C141.362 14.82 142.226 14.5096 142.942 13.9081C143.659 13.3067 144.1 12.5112 144.228 11.5218H140.609L140.627 11.483Z" fill="#1D1D31"/>
<path fill-rule="evenodd" clip-rule="evenodd" d="M162.471 1.18115V4.80914H153.909V7.93269H161.699V11.3473H153.909V14.7036H162.434V18.3316H150.051V1.18115H162.471Z" fill="#1D1D31"/>
<path fill-rule="evenodd" clip-rule="evenodd" d="M172.334 8.72813L174.704 1.18115H178.709L172.977 18.351H168.366L162.449 1.18115H166.62L169.008 8.72813C169.762 11.1921 170.313 13.1904 170.68 14.7618C171.213 12.5695 171.765 10.5518 172.315 8.72813H172.334Z" fill="#1D1D31"/>
<path fill-rule="evenodd" clip-rule="evenodd" d="M106.82 20.3492V33.8718H113.728V37.5191H103.219V20.3492H106.82Z" fill="#1D1D31"/>
<path fill-rule="evenodd" clip-rule="evenodd" d="M130.945 37.5191H126.976L126.039 34.5314H119.462L118.544 37.5191H114.703L120.528 20.3492H124.992L130.945 37.5191ZM121.41 28.1872L120.491 31.1362H124.955L124.037 28.1872C123.761 27.3142 123.302 25.8785 122.695 23.8414C121.905 26.4606 121.483 27.9157 121.391 28.1872H121.41Z" fill="#1D1D31"/>
<path fill-rule="evenodd" clip-rule="evenodd" d="M142.536 28.3813C143.382 28.7111 144.061 29.2737 144.539 30.0303C145.016 30.787 145.274 31.6212 145.274 32.5331C145.274 34.1046 144.796 35.3268 143.823 36.1999C142.867 37.0729 141.434 37.5192 139.578 37.5192H131.898V20.3493H139.358C141.103 20.3493 142.408 20.7568 143.29 21.5522C144.172 22.3476 144.63 23.4146 144.63 24.7339C144.63 26.4412 143.932 27.644 142.536 28.3813ZM139.118 23.6087H135.628V27.2754H139.118C139.688 27.2754 140.129 27.1008 140.46 26.771C140.773 26.4412 140.938 25.9756 140.938 25.3936C140.938 24.8503 140.773 24.4041 140.46 24.0937C140.148 23.7639 139.707 23.6087 139.118 23.6087ZM135.628 34.2597H139.358C140.019 34.2597 140.533 34.0852 140.901 33.7553C141.269 33.4255 141.434 32.9405 141.434 32.3003C141.434 31.0004 140.736 30.3408 139.358 30.3408H135.628V34.2404V34.2597Z" fill="#1D1D31"/>
<path fill-rule="evenodd" clip-rule="evenodd" d="M152.549 37.5195C150.234 37.5195 148.434 37.015 147.184 36.0062C145.916 34.9973 145.292 33.5811 145.273 31.7574H149.095C149.095 32.7662 149.407 33.4841 149.995 33.8721C150.583 34.2795 151.483 34.4736 152.696 34.4736C154.57 34.4736 155.525 33.8527 155.525 32.5916C155.525 32.029 155.323 31.6216 154.901 31.35C154.496 31.0784 153.706 30.8455 152.531 30.6321L151.171 30.3799C147.46 29.7591 145.623 28.0518 145.623 25.2387C145.623 23.7448 146.192 22.5614 147.312 21.6883C148.434 20.8152 150.031 20.369 152.108 20.369C154.312 20.369 156.003 20.8346 157.179 21.7465C158.354 22.6777 158.961 23.997 159.052 25.7237H155.323C155.268 24.9282 155.01 24.3462 154.515 23.9776C154.019 23.609 153.247 23.4149 152.2 23.4149C150.509 23.4149 149.665 23.9776 149.665 25.0835C149.665 25.6461 149.866 26.0535 150.289 26.3445C150.693 26.6356 151.428 26.8878 152.493 27.0818L153.89 27.334C155.892 27.6832 157.363 28.2652 158.262 29.0607C159.163 29.8561 159.622 30.9426 159.622 32.3394C159.622 34.0079 158.998 35.3078 157.748 36.2002C156.498 37.0926 154.772 37.5388 152.567 37.5388L152.549 37.5195Z" fill="#1D1D31"/>
<path fill-rule="evenodd" clip-rule="evenodd" d="M81.0993 37.5194V8.49554H74.5586V1.16199H80.2357C84.4799 1.16199 87.9339 4.86757 87.9339 9.40737V37.5H81.0993V37.5194Z" fill="#FDA665"/>
<path fill-rule="evenodd" clip-rule="evenodd" d="M69.7242 37.5194C65.4066 37.5194 61.879 33.8138 61.879 29.2739V8.49554H55.8345C46.3542 8.49554 37.572 12.9772 31.6928 20.7958L24.4356 30.4574C21.055 34.939 16.0026 37.5194 10.5643 37.5194H0V30.1859H10.5459C13.8346 30.1859 16.9028 28.6338 18.9422 25.9176L26.1994 16.2559C29.7086 11.5803 34.2649 7.73891 39.3542 5.13918C44.4618 2.53945 50.1389 1.16199 55.8161 1.16199H60.9788C65.2964 1.16199 68.8239 4.86757 68.8239 9.40737V30.1859H75.4932V37.5194H69.7058H69.7242Z" fill="#FDA665"/>
<path d="M196.629 0.883667V36.2325" stroke="#1D1D31" stroke-width="0.884687"/>
<mask id="mask0_2981_246" style="mask-type:luminance" maskUnits="userSpaceOnUse" x="214" y="0" width="68" height="38">
<path d="M281.913 0.883667H214.75V37.1162H281.913V0.883667Z" fill="white"/>
</mask>
<g mask="url(#mask0_2981_246)">
<path d="M216.306 9.72097H215.02L217.91 1.68714H219.311L222.202 9.72097H220.915L218.644 3.14641H218.581L216.306 9.72097ZM216.522 6.57492H220.696V7.59484H216.522V6.57492ZM226.285 9.72097V1.68714H229.227C229.797 1.68714 230.27 1.78129 230.644 1.96958C231.018 2.15526 231.298 2.40762 231.483 2.72667C231.669 3.04312 231.762 3.40009 231.762 3.79759C231.762 4.13234 231.7 4.41478 231.577 4.64491C231.454 4.87243 231.29 5.05549 231.083 5.1941C230.879 5.33009 230.654 5.42946 230.408 5.49223V5.57068C230.675 5.58376 230.935 5.67006 231.189 5.82959C231.445 5.9865 231.657 6.2101 231.824 6.50038C231.991 6.79067 232.075 7.14371 232.075 7.55952C232.075 7.97011 231.979 8.33885 231.785 8.66575C231.594 8.99005 231.299 9.24765 230.898 9.43853C230.499 9.62685 229.987 9.72097 229.365 9.72097H226.285ZM227.498 8.68144H229.247C229.827 8.68144 230.243 8.56899 230.494 8.34408C230.745 8.11917 230.871 7.83804 230.871 7.50068C230.871 7.24701 230.807 7.01426 230.679 6.80243C230.551 6.5906 230.368 6.42193 230.129 6.29639C229.894 6.17087 229.614 6.1081 229.29 6.1081H227.498V8.68144ZM227.498 5.16271H229.121C229.393 5.16271 229.638 5.11041 229.855 5.00581C230.075 4.9012 230.249 4.75475 230.377 4.56646C230.508 4.37555 230.573 4.15064 230.573 3.89174C230.573 3.55962 230.456 3.28109 230.224 3.05619C229.991 2.83129 229.634 2.71884 229.153 2.71884H227.498V5.16271ZM233.419 9.72097V3.6956H234.592V9.72097H233.419ZM234.012 2.7659C233.807 2.7659 233.632 2.69791 233.486 2.56192C233.342 2.42332 233.27 2.25856 233.27 2.06766C233.27 1.87413 233.342 1.70937 233.486 1.57338C233.632 1.43478 233.807 1.36548 234.012 1.36548C234.215 1.36548 234.389 1.43478 234.533 1.57338C234.68 1.70937 234.753 1.87413 234.753 2.06766C234.753 2.25856 234.68 2.42332 234.533 2.56192C234.389 2.69791 234.215 2.7659 234.012 2.7659ZM238.708 9.84257C238.143 9.84257 237.65 9.71311 237.229 9.45418C236.808 9.19533 236.481 8.83311 236.248 8.36761C236.016 7.90211 235.899 7.35816 235.899 6.73574C235.899 6.11072 236.016 5.56414 236.248 5.09603C236.481 4.62791 236.808 4.2644 237.229 4.0055C237.65 3.74659 238.143 3.61715 238.708 3.61715C239.272 3.61715 239.765 3.74659 240.187 4.0055C240.608 4.2644 240.935 4.62791 241.167 5.09603C241.4 5.56414 241.516 6.11072 241.516 6.73574C241.516 7.35816 241.4 7.90211 241.167 8.36761C240.935 8.83311 240.608 9.19533 240.187 9.45418C239.765 9.71311 239.272 9.84257 238.708 9.84257ZM238.712 8.85793C239.078 8.85793 239.381 8.7612 239.621 8.56768C239.863 8.37415 240.04 8.11656 240.155 7.79489C240.273 7.47323 240.332 7.11887 240.332 6.73182C240.332 6.34739 240.273 5.99435 240.155 5.67267C240.04 5.34839 239.863 5.08818 239.621 4.89205C239.381 4.6959 239.078 4.59784 238.712 4.59784C238.343 4.59784 238.037 4.6959 237.794 4.89205C237.554 5.08818 237.374 5.34839 237.257 5.67267C237.141 5.99435 237.083 6.34739 237.083 6.73182C237.083 7.11887 237.141 7.47323 237.257 7.79489C237.374 8.11656 237.554 8.37415 237.794 8.56768C238.037 8.7612 238.343 8.85793 238.712 8.85793ZM242.826 11.9805V3.6956H243.971V4.67237H244.069C244.137 4.54684 244.235 4.4017 244.363 4.23694C244.492 4.07218 244.669 3.92835 244.897 3.80544C245.124 3.67991 245.425 3.61715 245.8 3.61715C246.286 3.61715 246.719 3.74006 247.101 3.98589C247.483 4.23171 247.783 4.58607 248 5.04896C248.219 5.51184 248.33 6.06887 248.33 6.72006C248.33 7.37124 248.221 7.92957 248.004 8.39507C247.787 8.85793 247.488 9.21495 247.109 9.46602C246.73 9.71443 246.297 9.83868 245.811 9.83868C245.445 9.83868 245.146 9.77718 244.912 9.65425C244.683 9.53133 244.502 9.38754 244.371 9.22282C244.241 9.058 244.14 8.91157 244.069 8.78343H243.999V11.9805H242.826ZM243.975 6.70829C243.975 7.13194 244.037 7.5033 244.159 7.82235C244.282 8.1414 244.46 8.39116 244.693 8.5716C244.926 8.74943 245.211 8.83831 245.548 8.83831C245.898 8.83831 246.191 8.74551 246.427 8.55983C246.662 8.37154 246.84 8.11656 246.96 7.79489C247.084 7.47323 247.145 7.11103 247.145 6.70829C247.145 6.31078 247.084 5.95381 246.964 5.63737C246.847 5.32093 246.669 5.07119 246.431 4.88812C246.195 4.70506 245.901 4.61353 245.548 4.61353C245.208 4.61353 244.92 4.70114 244.685 4.87635C244.453 5.05157 244.276 5.29609 244.156 5.60991C244.036 5.92373 243.975 6.28985 243.975 6.70829ZM250.816 6.1434V9.72097H249.644V1.68714H250.8V4.6763H250.876C251.016 4.35201 251.232 4.09442 251.523 3.90351C251.812 3.7126 252.192 3.61715 252.66 3.61715C253.073 3.61715 253.434 3.70214 253.742 3.87213C254.054 4.04211 254.295 4.29578 254.464 4.63314C254.637 4.96789 254.723 5.38631 254.723 5.88842V9.72097H253.551V6.02965C253.551 5.58769 253.437 5.24509 253.21 5.00188C252.982 4.75606 252.665 4.63314 252.26 4.63314C251.983 4.63314 251.735 4.69198 251.515 4.80967C251.297 4.92735 251.127 5.09995 251.001 5.32747C250.877 5.55238 250.816 5.82435 250.816 6.1434ZM258.042 9.85432C257.66 9.85432 257.315 9.78372 257.007 9.6425C256.698 9.49872 256.454 9.29078 256.273 9.01877C256.095 8.74682 256.007 8.41338 256.007 8.01849C256.007 7.67852 256.072 7.39869 256.203 7.17902C256.333 6.95934 256.509 6.78544 256.732 6.65729C256.954 6.52915 257.203 6.43239 257.477 6.367C257.752 6.30163 258.032 6.25193 258.317 6.21794C258.678 6.1761 258.971 6.1421 259.195 6.11595C259.42 6.08718 259.584 6.04141 259.685 5.97865C259.788 5.91589 259.838 5.8139 259.838 5.67267V5.64522C259.838 5.30263 259.742 5.03719 259.548 4.84889C259.358 4.6606 259.072 4.56646 258.693 4.56646C258.298 4.56646 257.987 4.65406 257.76 4.82928C257.534 5.00188 257.379 5.1941 257.293 5.40593L256.19 5.15487C256.321 4.78875 256.512 4.49323 256.763 4.26832C257.017 4.0408 257.308 3.87605 257.638 3.77406C257.967 3.66945 258.314 3.61715 258.678 3.61715C258.918 3.61715 259.173 3.64591 259.442 3.70345C259.715 3.75837 259.968 3.86036 260.203 4.00942C260.442 4.15849 260.636 4.37162 260.788 4.64884C260.939 4.92343 261.015 5.2804 261.015 5.71975V9.72097H259.87V8.89717H259.823C259.747 9.0489 259.633 9.1979 259.482 9.34442C259.33 9.49085 259.135 9.61245 258.897 9.70922C258.659 9.80599 258.374 9.85432 258.042 9.85432ZM258.297 8.9129C258.621 8.9129 258.899 8.84883 259.129 8.72067C259.361 8.59252 259.538 8.42515 259.658 8.21855C259.781 8.00934 259.843 7.78574 259.843 7.54776V6.77105C259.801 6.81289 259.72 6.85212 259.6 6.88873C259.482 6.92273 259.347 6.9528 259.195 6.97895C259.044 7.0025 258.896 7.02472 258.752 7.04565C258.608 7.06395 258.488 7.07964 258.391 7.09271C258.164 7.12149 257.956 7.16986 257.768 7.23786C257.582 7.30585 257.433 7.40393 257.321 7.53206C257.21 7.6576 257.155 7.82497 257.155 8.03418C257.155 8.32446 257.263 8.54414 257.477 8.6932C257.692 8.83964 257.965 8.9129 258.297 8.9129ZM262.578 9.72097V3.6956H263.712V4.65275H263.774C263.884 4.32847 264.078 4.07349 264.355 3.88782C264.634 3.69953 264.951 3.60538 265.304 3.60538C265.377 3.60538 265.464 3.60799 265.563 3.61322C265.665 3.61845 265.745 3.62499 265.803 3.63284V4.75475C265.755 4.74167 265.672 4.72729 265.552 4.7116C265.431 4.69329 265.31 4.68414 265.19 4.68414C264.914 4.68414 264.666 4.74298 264.449 4.86067C264.235 4.97573 264.064 5.13656 263.939 5.34316C263.813 5.54715 263.751 5.77989 263.751 6.04141V9.72097H262.578ZM266.817 9.72097V3.6956H267.943V4.6763H268.018C268.144 4.34417 268.349 4.08526 268.634 3.89958C268.919 3.71129 269.26 3.61715 269.657 3.61715C270.06 3.61715 270.398 3.71129 270.669 3.89958C270.944 4.08788 271.146 4.34678 271.277 4.6763H271.34C271.484 4.35463 271.713 4.09834 272.027 3.90743C272.34 3.71391 272.714 3.61715 273.149 3.61715C273.695 3.61715 274.141 3.78844 274.486 4.13103C274.834 4.47361 275.008 4.99011 275.008 5.68052V9.72097H273.836V5.79036C273.836 5.38239 273.724 5.08688 273.502 4.90382C273.28 4.72076 273.014 4.62922 272.705 4.62922C272.324 4.62922 272.027 4.7469 271.815 4.98227C271.603 5.21502 271.497 5.51446 271.497 5.88059V9.72097H270.328V5.71582C270.328 5.38893 270.226 5.1261 270.022 4.92735C269.818 4.72859 269.553 4.62922 269.226 4.62922C269.003 4.62922 268.798 4.68806 268.61 4.80574C268.425 4.92081 268.274 5.08165 268.159 5.28825C268.046 5.49484 267.991 5.73414 267.991 6.00611V9.72097H266.817ZM278.334 9.85432C277.952 9.85432 277.606 9.78372 277.298 9.6425C276.99 9.49872 276.745 9.29078 276.565 9.01877C276.387 8.74682 276.298 8.41338 276.298 8.01849C276.298 7.67852 276.363 7.39869 276.494 7.17902C276.625 6.95934 276.801 6.78544 277.023 6.65729C277.246 6.52915 277.494 6.43239 277.769 6.367C278.043 6.30163 278.323 6.25193 278.609 6.21794C278.969 6.1761 279.262 6.1421 279.487 6.11595C279.711 6.08718 279.875 6.04141 279.977 5.97865C280.079 5.91589 280.13 5.8139 280.13 5.67267V5.64522C280.13 5.30263 280.033 5.03719 279.84 4.84889C279.649 4.6606 279.364 4.56646 278.985 4.56646C278.59 4.56646 278.279 4.65406 278.051 4.82928C277.826 5.00188 277.671 5.1941 277.584 5.40593L276.482 5.15487C276.613 4.78875 276.804 4.49323 277.055 4.26832C277.309 4.0408 277.6 3.87605 277.93 3.77406C278.259 3.66945 278.606 3.61715 278.969 3.61715C279.209 3.61715 279.465 3.64591 279.734 3.70345C280.006 3.75837 280.259 3.86036 280.495 4.00942C280.733 4.15849 280.927 4.37162 281.079 4.64884C281.231 4.92343 281.307 5.2804 281.307 5.71975V9.72097H280.161V8.89717H280.114C280.038 9.0489 279.925 9.1979 279.773 9.34442C279.621 9.49085 279.427 9.61245 279.189 9.70922C278.951 9.80599 278.666 9.85432 278.334 9.85432ZM278.588 8.9129C278.913 8.9129 279.19 8.84883 279.42 8.72067C279.653 8.59252 279.83 8.42515 279.95 8.21855C280.073 8.00934 280.134 7.78574 280.134 7.54776V6.77105C280.092 6.81289 280.011 6.85212 279.891 6.88873C279.773 6.92273 279.639 6.9528 279.487 6.97895C279.335 7.0025 279.187 7.02472 279.043 7.04565C278.9 7.06395 278.779 7.07964 278.683 7.09271C278.455 7.12149 278.247 7.16986 278.059 7.23786C277.873 7.30585 277.724 7.40393 277.612 7.53206C277.502 7.6576 277.447 7.82497 277.447 8.03418C277.447 8.32446 277.554 8.54414 277.769 8.6932C277.983 8.83964 278.257 8.9129 278.588 8.9129ZM222.3 17.5555H221.076C221.029 17.294 220.941 17.0639 220.813 16.8651C220.685 16.6664 220.528 16.4977 220.342 16.359C220.157 16.2205 219.949 16.1158 219.718 16.0452C219.491 15.9746 219.249 15.9394 218.993 15.9394C218.53 15.9394 218.115 16.0557 217.749 16.2884C217.386 16.5212 217.098 16.8625 216.886 17.3123C216.677 17.7621 216.572 18.3113 216.572 18.9598C216.572 19.6137 216.677 20.1655 216.886 20.6153C217.098 21.0651 217.387 21.4051 217.753 21.6352C218.12 21.8653 218.531 21.9804 218.989 21.9804C219.243 21.9804 219.483 21.9464 219.71 21.8784C219.941 21.8078 220.149 21.7045 220.334 21.5685C220.52 21.4325 220.677 21.2664 220.805 21.0703C220.936 20.8716 221.026 20.644 221.076 20.3877L222.3 20.3917C222.234 20.7866 222.108 21.15 221.92 21.4822C221.734 21.8117 221.495 22.0968 221.201 22.3374C220.911 22.5754 220.579 22.7597 220.205 22.8904C219.831 23.0212 219.423 23.0866 218.981 23.0866C218.286 23.0866 217.665 22.9219 217.122 22.5924C216.578 22.2603 216.149 21.7855 215.835 21.1684C215.524 20.5512 215.369 19.815 215.369 18.9598C215.369 18.1021 215.525 17.366 215.839 16.7513C216.152 16.1341 216.582 15.6608 217.125 15.3313C217.67 14.9992 218.288 14.8331 218.981 14.8331C219.407 14.8331 219.805 14.8945 220.173 15.0175C220.545 15.1378 220.879 15.3156 221.174 15.551C221.47 15.7837 221.714 16.0688 221.907 16.4061C222.101 16.7409 222.232 17.124 222.3 17.5555ZM226.194 23.0984C225.629 23.0984 225.136 22.9689 224.715 22.7101C224.294 22.4511 223.967 22.0889 223.735 21.6235C223.501 21.1579 223.386 20.614 223.386 19.9916C223.386 19.3665 223.501 18.8199 223.735 18.3518C223.967 17.8837 224.294 17.5203 224.715 17.2613C225.136 17.0024 225.629 16.8729 226.194 16.8729C226.759 16.8729 227.252 17.0024 227.673 17.2613C228.094 17.5203 228.421 17.8837 228.654 18.3518C228.887 18.8199 229.003 19.3665 229.003 19.9916C229.003 20.614 228.887 21.1579 228.654 21.6235C228.421 22.0889 228.094 22.4511 227.673 22.7101C227.252 22.9689 226.759 23.0984 226.194 23.0984ZM226.198 22.1137C226.564 22.1137 226.868 22.017 227.108 21.8235C227.348 21.63 227.527 21.3724 227.642 21.0507C227.759 20.729 227.818 20.3747 227.818 19.9876C227.818 19.6032 227.759 19.2501 227.642 18.9285C227.527 18.6042 227.348 18.344 227.108 18.1479C226.868 17.9517 226.564 17.8537 226.198 17.8537C225.829 17.8537 225.523 17.9517 225.28 18.1479C225.039 18.344 224.861 18.6042 224.743 18.9285C224.627 19.2501 224.57 19.6032 224.57 19.9876C224.57 20.3747 224.627 20.729 224.743 21.0507C224.861 21.3724 225.039 21.63 225.28 21.8235C225.523 22.017 225.829 22.1137 226.198 22.1137ZM230.312 22.9768V16.9514H231.438V17.9321H231.512C231.638 17.6 231.843 17.3411 232.128 17.1554C232.413 16.9671 232.755 16.8729 233.152 16.8729C233.555 16.8729 233.892 16.9671 234.164 17.1554C234.438 17.3437 234.642 17.6026 234.772 17.9321H234.835C234.979 17.6105 235.207 17.3541 235.522 17.1632C235.836 16.9697 236.209 16.8729 236.643 16.8729C237.19 16.8729 237.636 17.0443 237.981 17.3868C238.329 17.7294 238.503 18.246 238.503 18.9363V22.9768H237.33V19.0462C237.33 18.6382 237.219 18.3427 236.997 18.1596C236.774 17.9766 236.509 17.8851 236.201 17.8851C235.818 17.8851 235.522 18.0027 235.31 18.2381C235.098 18.4709 234.992 18.7703 234.992 19.1364V22.9768H233.823V18.9717C233.823 18.6448 233.721 18.3819 233.517 18.1831C233.313 17.9844 233.047 17.8851 232.72 17.8851C232.499 17.8851 232.293 17.9439 232.105 18.0615C231.919 18.1766 231.769 18.3374 231.654 18.544C231.542 18.7507 231.485 18.99 231.485 19.2619V22.9768H230.312ZM240.075 25.2363V16.9514H241.22V17.9282H241.318C241.386 17.8027 241.484 17.6575 241.612 17.4928C241.741 17.328 241.918 17.1842 242.146 17.0612C242.373 16.9358 242.675 16.8729 243.049 16.8729C243.535 16.8729 243.968 16.9959 244.35 17.2417C244.733 17.4876 245.032 17.8419 245.249 18.3047C245.469 18.7676 245.579 19.3247 245.579 19.9758C245.579 20.6271 245.47 21.1854 245.253 21.6509C245.036 22.1137 244.737 22.4708 244.358 22.7218C243.979 22.9702 243.547 23.0945 243.06 23.0945C242.694 23.0945 242.395 23.033 242.162 22.9101C241.931 22.7872 241.751 22.6434 241.62 22.4786C241.49 22.3138 241.389 22.1674 241.318 22.0392H241.247V25.2363H240.075ZM241.224 19.9641C241.224 20.3877 241.285 20.7591 241.408 21.0782C241.531 21.3972 241.71 21.647 241.942 21.8274C242.175 22.0052 242.46 22.0941 242.798 22.0941C243.147 22.0941 243.441 22.0013 243.676 21.8157C243.911 21.6273 244.09 21.3724 244.21 21.0507C244.333 20.729 244.394 20.3668 244.394 19.9641C244.394 19.5666 244.333 19.2097 244.213 18.8932C244.096 18.5767 243.918 18.327 243.679 18.1439C243.444 17.9609 243.15 17.8693 242.798 17.8693C242.457 17.8693 242.169 17.957 241.934 18.1321C241.702 18.3074 241.525 18.5519 241.405 18.8657C241.285 19.1795 241.224 19.5457 241.224 19.9641ZM248.646 23.1101C248.264 23.1101 247.919 23.0395 247.61 22.8983C247.302 22.7545 247.057 22.5466 246.877 22.2746C246.699 22.0027 246.61 21.6692 246.61 21.2743C246.61 20.9343 246.675 20.6545 246.806 20.4349C246.937 20.2152 247.114 20.0412 247.336 19.9131C247.558 19.785 247.806 19.6882 248.081 19.6228C248.356 19.5574 248.635 19.5077 248.921 19.4737C249.281 19.4319 249.575 19.3979 249.799 19.3717C250.025 19.343 250.188 19.2972 250.29 19.2345C250.391 19.1717 250.443 19.0697 250.443 18.9285V18.9011C250.443 18.5584 250.346 18.293 250.153 18.1047C249.962 17.9164 249.676 17.8223 249.297 17.8223C248.902 17.8223 248.591 17.9099 248.364 18.0851C248.139 18.2577 247.983 18.4499 247.897 18.6618L246.795 18.4107C246.925 18.0446 247.116 17.749 247.367 17.5241C247.621 17.2966 247.913 17.1319 248.242 17.0299C248.572 16.9252 248.918 16.8729 249.281 16.8729C249.522 16.8729 249.777 16.9017 250.047 16.9593C250.319 17.0141 250.573 17.1162 250.808 17.2652C251.045 17.4143 251.241 17.6274 251.392 17.9047C251.544 18.1792 251.62 18.5362 251.62 18.9756V22.9768H250.474V22.153H250.427C250.352 22.3047 250.238 22.4537 250.086 22.6002C249.934 22.7467 249.739 22.8683 249.501 22.965C249.264 23.0618 248.978 23.1101 248.646 23.1101ZM248.901 22.1687C249.226 22.1687 249.502 22.1046 249.733 21.9765C249.965 21.8484 250.142 21.681 250.262 21.4744C250.385 21.2652 250.447 21.0415 250.447 20.8035V20.0268C250.405 20.0687 250.323 20.108 250.203 20.1445C250.086 20.1786 249.951 20.2086 249.799 20.2348C249.648 20.2583 249.5 20.2806 249.356 20.3015C249.212 20.3198 249.092 20.3354 248.995 20.3485C248.768 20.3773 248.559 20.4257 248.371 20.4937C248.186 20.5617 248.037 20.6598 247.924 20.7879C247.814 20.9134 247.76 21.0808 247.76 21.29C247.76 21.5802 247.867 21.7999 248.081 21.949C248.296 22.0955 248.569 22.1687 248.901 22.1687ZM254.355 19.3992V22.9768H253.182V16.9514H254.308V17.9321H254.382C254.521 17.613 254.737 17.3568 255.034 17.1632C255.331 16.9697 255.707 16.8729 256.159 16.8729C256.569 16.8729 256.929 16.9593 257.238 17.1319C257.547 17.3019 257.785 17.5555 257.956 17.8929C258.126 18.2302 258.211 18.6474 258.211 19.1443V22.9768H257.038V19.2855C257.038 18.8487 256.924 18.5075 256.697 18.2616C256.469 18.0132 256.157 17.8889 255.759 17.8889C255.487 17.8889 255.245 17.9478 255.034 18.0655C254.824 18.1831 254.658 18.3558 254.535 18.5833C254.415 18.8082 254.355 19.0802 254.355 19.3992ZM260.309 25.2363C260.134 25.2363 259.974 25.2219 259.831 25.1932C259.687 25.167 259.579 25.1382 259.51 25.1068L259.791 24.1458C260.006 24.2033 260.197 24.2281 260.364 24.2203C260.532 24.2125 260.68 24.1497 260.808 24.032C260.939 23.9143 261.053 23.7221 261.152 23.4553L261.298 23.0553L259.093 16.9514H260.349L261.874 21.6273H261.937L263.463 16.9514H264.723L262.239 23.781C262.124 24.0948 261.978 24.3603 261.8 24.5773C261.623 24.797 261.41 24.9617 261.165 25.0716C260.919 25.1814 260.634 25.2363 260.309 25.2363ZM215.628 36.2326V28.1988H218.569C219.139 28.1988 219.611 28.2929 219.985 28.4812C220.359 28.6669 220.639 28.9193 220.825 29.2383C221.01 29.5548 221.103 29.9117 221.103 30.3092C221.103 30.6439 221.042 30.9264 220.919 31.1565C220.796 31.3841 220.631 31.5671 220.424 31.7057C220.221 31.8417 219.996 31.9411 219.75 32.0038V32.0823C220.017 32.0954 220.277 32.1817 220.53 32.3412C220.787 32.4981 220.999 32.7218 221.166 33.012C221.334 33.3023 221.417 33.6553 221.417 34.0712C221.417 34.4818 221.32 34.8505 221.127 35.1773C220.936 35.5017 220.641 35.7593 220.241 35.9502C219.84 36.1385 219.329 36.2326 218.706 36.2326H215.628ZM216.839 35.1931H218.589C219.169 35.1931 219.585 35.0806 219.837 34.8557C220.088 34.6308 220.213 34.3497 220.213 34.0123C220.213 33.7586 220.149 33.5258 220.021 33.314C219.892 33.1022 219.709 32.9336 219.472 32.808C219.236 32.6825 218.957 32.6198 218.632 32.6198H216.839V35.1931ZM216.839 31.6744H218.463C218.736 31.6744 218.979 31.622 219.197 31.5174C219.417 31.4128 219.59 31.2664 219.718 31.0781C219.849 30.8871 219.914 30.6622 219.914 30.4034C219.914 30.0712 219.799 29.7927 219.565 29.5678C219.333 29.3429 218.976 29.2304 218.494 29.2304H216.839V31.6744ZM226.578 33.7338V30.2072H227.755V36.2326H226.601V35.1891H226.538C226.4 35.5108 226.177 35.7789 225.872 35.9933C225.569 36.2051 225.19 36.3111 224.738 36.3111C224.351 36.3111 224.008 36.2261 223.71 36.056C223.415 35.8834 223.182 35.6285 223.012 35.2912C222.844 34.9538 222.761 34.5367 222.761 34.0397V30.2072H223.934V33.8985C223.934 34.3091 224.048 34.6361 224.275 34.8793C224.503 35.1225 224.798 35.2441 225.161 35.2441C225.381 35.2441 225.599 35.1891 225.817 35.0793C226.036 34.9695 226.218 34.8034 226.362 34.5811C226.508 34.3588 226.58 34.0764 226.578 33.7338ZM229.331 36.2326V30.2072H230.503V36.2326H229.331ZM229.923 29.2775C229.718 29.2775 229.543 29.2096 229.397 29.0736C229.254 28.9349 229.181 28.7702 229.181 28.5793C229.181 28.3858 229.254 28.221 229.397 28.085C229.543 27.9464 229.718 27.8771 229.923 27.8771C230.127 27.8771 230.301 27.9464 230.445 28.085C230.591 28.221 230.664 28.3858 230.664 28.5793C230.664 28.7702 230.591 28.9349 230.445 29.0736C230.301 29.2096 230.127 29.2775 229.923 29.2775ZM233.254 28.1988V36.2326H232.082V28.1988H233.254ZM237.088 36.3503C236.601 36.3503 236.167 36.2261 235.785 35.9776C235.406 35.7266 235.108 35.3696 234.891 34.9067C234.676 34.4412 234.569 33.8829 234.569 33.2317C234.569 32.5805 234.678 32.0234 234.894 31.5605C235.114 31.0977 235.415 30.7434 235.797 30.4975C236.178 30.2517 236.611 30.1287 237.096 30.1287C237.47 30.1287 237.77 30.1916 237.998 30.3171C238.228 30.44 238.405 30.5839 238.531 30.7486C238.659 30.9133 238.759 31.0585 238.83 31.184H238.9V28.1988H240.073V36.2326H238.928V35.2951H238.83C238.759 35.4232 238.656 35.5696 238.523 35.7344C238.393 35.8992 238.212 36.043 237.982 36.1659C237.751 36.2888 237.454 36.3503 237.088 36.3503ZM237.347 35.3499C237.684 35.3499 237.969 35.261 238.201 35.0832C238.437 34.9028 238.615 34.653 238.735 34.334C238.858 34.0149 238.92 33.6436 238.92 33.2199C238.92 32.8015 238.86 32.4353 238.739 32.1215C238.618 31.8077 238.443 31.5632 238.209 31.388C237.977 31.2128 237.689 31.1251 237.347 31.1251C236.993 31.1251 236.699 31.2167 236.464 31.3997C236.229 31.5828 236.05 31.8326 235.93 32.149C235.813 32.4655 235.754 32.8224 235.754 33.2199C235.754 33.6226 235.814 33.9849 235.935 34.3065C236.055 34.6282 236.232 34.8832 236.467 35.0715C236.706 35.2571 236.999 35.3499 237.347 35.3499ZM244.344 36.3542C243.75 36.3542 243.239 36.2274 242.81 35.9737C242.384 35.7174 242.054 35.3578 241.821 34.8949C241.591 34.4295 241.476 33.8842 241.476 33.2591C241.476 32.642 241.591 32.098 241.821 31.6273C242.054 31.1565 242.379 30.7891 242.794 30.525C243.213 30.2609 243.702 30.1287 244.262 30.1287C244.601 30.1287 244.931 30.185 245.25 30.2974C245.569 30.4099 245.855 30.5864 246.109 30.8271C246.362 31.0676 246.563 31.3802 246.709 31.7646C246.856 32.1464 246.929 32.6106 246.929 33.1572V33.573H242.139V32.6943H245.779C245.779 32.3857 245.716 32.1124 245.591 31.8744C245.465 31.6338 245.29 31.4442 245.062 31.3056C244.837 31.167 244.573 31.0977 244.269 31.0977C243.94 31.0977 243.652 31.1788 243.406 31.3409C243.163 31.5004 242.975 31.7096 242.842 31.9686C242.711 32.2248 242.646 32.5034 242.646 32.8041V33.4906C242.646 33.8933 242.716 34.2359 242.857 34.5184C243.001 34.8008 243.201 35.0165 243.458 35.1656C243.714 35.312 244.013 35.3853 244.356 35.3853C244.578 35.3853 244.781 35.3539 244.964 35.2912C245.146 35.2258 245.305 35.129 245.438 35.0009C245.572 34.8727 245.674 34.7145 245.744 34.5262L246.855 34.7263C246.765 35.0532 246.606 35.3395 246.376 35.5854C246.149 35.8286 245.862 36.0181 245.517 36.1541C245.174 36.2875 244.783 36.3542 244.344 36.3542ZM248.231 36.2326V30.2072H249.364V31.1644H249.426C249.537 30.8401 249.73 30.5851 250.007 30.3994C250.287 30.2112 250.603 30.117 250.957 30.117C251.029 30.117 251.116 30.1196 251.216 30.1249C251.317 30.1301 251.397 30.1366 251.454 30.1445V31.2664C251.408 31.2533 251.324 31.239 251.203 31.2232C251.083 31.2049 250.963 31.1957 250.843 31.1957C250.565 31.1957 250.319 31.2546 250.101 31.3723C249.887 31.4874 249.717 31.6482 249.592 31.8548C249.466 32.0588 249.403 32.2916 249.403 32.5531V36.2326H248.231Z" fill="#1D1D31"/>
</g>
</g>
<defs>
<clipPath id="clip0_2981_246">
<rect width="281.907" height="38" fill="white"/>
</clipPath>
</defs>
</svg>
