<?xml version="1.0" encoding="UTF-8"?> <svg xmlns="http://www.w3.org/2000/svg" width="783" height="71" viewBox="0 0 783 71" fill="none"> <rect x="73.8795" y="31.5081" width="50.1154" height="7.90585" fill="white"></rect> <rect x="197.501" y="31.5081" width="69.4106" height="7.90585" fill="white"></rect> <rect x="73.8795" y="2.84985" width="50.1154" height="7.90585" fill="white"></rect> <rect x="206.743" y="2.84985" width="37.7478" height="7.90585" fill="white"></rect> <rect x="73.8795" y="60.1667" width="50.1154" height="7.90585" fill="white"></rect> <rect x="206.743" y="60.1667" width="53.0052" height="7.90585" fill="white"></rect> <rect x="81.7853" y="2.84985" width="65.2225" height="7.90585" transform="rotate(90 81.7853 2.84985)" fill="white"></rect> <rect x="8.45239" y="2.84985" width="65.2225" height="7.90585" transform="rotate(90 8.45239 2.84985)" fill="white"></rect> <rect x="58.4049" y="2.84985" width="65.2225" height="7.90585" transform="rotate(90 58.4049 2.84985)" fill="white"></rect> <rect x="168.085" y="31.5085" width="33.1056" height="7.90585" fill="white"></rect> <path fill-rule="evenodd" clip-rule="evenodd" d="M330.547 2.70874L300.035 68.0727H308.76L339.272 2.70874H330.547Z" fill="white"></path> <path fill-rule="evenodd" clip-rule="evenodd" d="M269.322 2.70874L299.834 68.0727H308.559L278.046 2.70874H269.322Z" fill="white"></path> <path fill-rule="evenodd" clip-rule="evenodd" d="M58.1094 68.0728L8.54428 2.70825L2.24475 7.48511L48.1876 68.0728H58.1094Z" fill="white"></path> <path d="M143.631 10.0454C137.09 16.5208 133.819 24.9912 133.819 35.4565C133.819 45.9873 137.057 54.5231 143.533 61.0639C150.008 67.6047 158.184 70.8752 168.061 70.8752C175.125 70.8752 181.339 69.24 186.702 65.9695C192.066 62.6337 195.99 57.8589 198.476 51.6451C200.569 46.5433 201.452 40.5911 201.125 33.7886L193.667 38.6528C193.667 47.7694 190.3 53.5746 185.721 57.4337C181.208 61.2928 175.321 63.2224 168.061 63.2224C160.212 63.2224 153.9 60.6388 149.125 55.4715C144.416 50.2388 142.061 43.5672 142.061 35.4565C142.061 27.4767 144.416 20.8705 149.125 15.6378C153.9 10.3397 160.212 7.69069 168.061 7.69069C179.834 7.69069 187.324 12.073 190.529 20.8378H198.574C196.742 14.0353 192.981 8.90074 187.291 5.4341C181.666 1.96745 175.256 0.234131 168.061 0.234131C158.315 0.234131 150.172 3.50455 143.631 10.0454Z" fill="white"></path> <path d="M408.286 19.3066H406.475C403.997 14.2234 400.343 10.2522 395.514 7.39289C390.749 4.53361 385.475 3.10396 379.693 3.10396C370.353 2.97689 362.728 6.02679 356.819 12.2537C350.973 18.417 348.05 26.2006 348.05 35.6044C348.05 45.0083 350.973 52.7919 356.819 58.9552C362.664 65.055 370.257 68.1049 379.598 68.1049C385.697 68.1049 391.225 66.58 396.181 63.5301C401.201 60.4166 404.823 56.096 407.047 50.568H408.762C406.538 56.5407 402.758 61.2427 397.42 64.6738C392.147 68.0414 386.237 69.7252 379.693 69.7252C369.908 69.7252 361.902 66.5164 355.675 60.0989C349.448 53.6815 346.335 45.5166 346.335 35.6044C346.335 25.7558 349.448 17.5592 355.675 11.0146C361.902 4.47007 369.94 1.26132 379.788 1.3884C386.015 1.51548 391.702 3.13574 396.849 6.24917C401.995 9.36261 405.808 13.7151 408.286 19.3066Z" fill="white"></path> <path d="M484.487 68.9627H482.771L472.287 46.9463H433.401L422.917 68.9627H421.202V68.8674L452.558 2.15087H453.321L484.487 68.8674V68.9627ZM434.068 45.326H471.62L452.94 5.39139L434.068 45.326Z" fill="white"></path> <path d="M508.396 3.77113V43.3245H531.652C537.688 43.3245 542.739 41.5136 546.806 37.8919C550.872 34.2701 552.906 29.5047 552.906 23.5955C552.906 17.7498 550.872 12.9844 546.806 9.29907C542.803 5.61378 537.751 3.77113 531.652 3.77113H508.396ZM531.652 45.0401H508.396V68.8674H506.776V2.15087C508.555 2.15087 511.128 2.15087 514.496 2.15087C517.927 2.15087 521.041 2.15087 523.836 2.15087C526.696 2.15087 529.301 2.15087 531.652 2.15087C538.26 2.15087 543.724 4.15237 548.045 8.15536C552.429 12.0948 554.621 17.2415 554.621 23.5955C554.621 30.013 552.429 35.1914 548.045 39.1309C543.661 43.0703 538.196 45.0401 531.652 45.0401Z" fill="white"></path> <path d="M628.49 68.9627H626.774V3.96175H603.423V2.24618H651.84V3.96175H628.49V68.9627Z" fill="white"></path> <path d="M722.604 68.9627H720.888L710.404 46.9463H671.518L661.034 68.9627H659.318V68.8674L690.675 2.15087H691.438L722.604 68.8674V68.9627ZM672.185 45.326H709.737L691.056 5.39139L672.185 45.326Z" fill="white"></path> <path d="M744.893 2.24618H746.608V67.4378H782.063V68.9627H744.893V2.24618Z" fill="white"></path> <rect x="581.1" y="1.38403" width="1.69822" height="67.179" fill="white"></rect> </svg> 